#!OML:ASF X:\für Bonn\!DataBase\2005_08_11_Bastian_Final\c3d\Bastian.ASF
:FULLY-SPECIFIED
:DEGREES
278
root 22.5612 16.2382 -1.96225 353.03 -63.2982 40.3122
lowerback 73.3842 -8.80816 14.1876
upperback 14.2432 -2.09325 -4.20313
thorax -4.45635 -0.262118 -9.4966
lowerneck -2.96372 -9.4924 2.69918
upperneck -28.5702 -10.1647 16.0295
head -7.59575 -7.33731 5.53439
rclavicle -1.27222e-014 7.15625e-014
rhumerus 76.782 -12.897 -82.7138
rradius 12.8771
rwrist 31.5388
rhand -37.8172 -9.15755
rfingers 7.12502
rthumb -10.8629 -38.8566
lclavicle -1.27222e-014 7.15625e-014
lhumerus -10.5738 -27.8118 81.9238
lradius 49.6817
lwrist 32.7795
lhand -13.2447 -15.868
lfingers 7.12502
lthumb 12.8573 13.716
rfemur -69.47 -15.4301 9.32828
rtibia 68.701
rfoot -19.8327 -8.23279
rtoes -0.740863
lfemur -61.4919 -9.45913 -39.076
ltibia 44.1459
lfoot -1.58535 -12.9133
ltoes -11.0737
279
root 22.5631 16.2281 -1.96169 353.139 -63.1733 40.28
lowerback 73.4194 -8.77005 14.2305
upperback 14.2368 -2.00328 -4.16063
thorax -4.43874 -0.220569 -9.50001
lowerneck -2.89108 -9.51373 2.92252
upperneck -28.7201 -10.1548 16.0429
head -7.67894 -7.36882 5.52405
rclavicle -1.59028e-014 -3.33958e-014
rhumerus 76.9574 -13.0271 -82.4977
rradius 12.8095
rwrist 31.6876
rhand -37.7828 -9.42932
rfingers 7.12502
rthumb -10.8298 -39.1301
lclavicle -1.59028e-014 -3.33958e-014
lhumerus -10.6067 -27.8001 81.9864
lradius 49.7009
lwrist 32.7344
lhand -13.1478 -15.9002
lfingers 7.12502
lthumb 12.9507 13.6779
rfemur -69.611 -15.5674 9.33631
rtibia 68.8456
rfoot -19.8679 -8.26178
rtoes -0.890037
lfemur -61.6246 -9.53147 -39.1494
ltibia 44.2794
lfoot -1.6107 -12.9892
ltoes -11.1259
280
root 22.5643 16.2186 -1.96135 353.29 -63.0683 40.2137
lowerback 73.4284 -8.70246 14.2397
upperback 14.2604 -1.91393 -4.10172
thorax -4.3913 -0.180493 -9.47192
lowerneck -2.82055 -9.50676 3.16141
upperneck -28.9075 -10.1093 16.0243
head -7.78107 -7.38524 5.50341
rclavicle -3.18055e-014 -5.88403e-014
rhumerus 77.1964 -13.1048 -82.2735
rradius 12.7169
rwrist 31.7899
rhand -37.7673 -9.74967
rfingers 7.12502
rthumb -10.8149 -39.4512
lclavicle -3.18055e-014 -5.88403e-014
lhumerus -10.5834 -27.7592 82.0399
lradius 49.6939
lwrist 32.7466
lhand -13.0235 -15.9058
lfingers 7.12502
lthumb 13.0705 13.6647
rfemur -69.7568 -15.6648 9.34259
rtibia 68.9825
rfoot -19.9303 -8.26048
rtoes -0.830086
lfemur -61.7681 -9.59673 -39.1906
ltibia 44.4107
lfoot -1.63071 -13.0747
ltoes -11.0768
281
root 22.5656 16.2088 -1.96114 353.454 -62.9535 40.1252
lowerback 73.4482 -8.64812 14.2867
upperback 14.2668 -1.80642 -4.03446
thorax -4.35547 -0.133402 -9.45505
lowerneck -2.67135 -9.51889 3.33266
upperneck -29.1418 -10.0673 16.0657
head -7.90397 -7.4068 5.52224
rclavicle -9.54166e-015 -3.18055e-014
rhumerus 77.3648 -13.2263 -81.9371
rradius 12.6641
rwrist 31.8095
rhand -37.7801 -10.0882
rfingers 7.12502
rthumb -10.8271 -39.7891
lclavicle -9.54166e-015 -3.18055e-014
lhumerus -10.5962 -27.7624 82.1262
lradius 49.7095
lwrist 32.7206
lhand -12.9132 -15.8939
lfingers 7.12502
lthumb 13.1769 13.6697
rfemur -69.8982 -15.7872 9.37081
rtibia 69.1185
rfoot -19.9875 -8.26729
rtoes -0.804175
lfemur -61.9072 -9.66255 -39.2312
ltibia 44.5394
lfoot -1.61362 -13.1507
ltoes -10.8223
282
root 22.5662 16.2003 -1.96111 353.589 -62.8367 40.0588
lowerback 73.51 -8.5927 14.3291
upperback 14.2449 -1.69072 -3.97352
thorax -4.34817 -0.084524 -9.44618
lowerneck -2.50219 -9.55332 3.5948
upperneck -29.3617 -10.0646 16.0461
head -8.03508 -7.4499 5.50914
rclavicle 1.59028e-014 -9.54166e-015
rhumerus 77.5297 -13.4171 -81.7627
rradius 12.6083
rwrist 31.9415
rhand -37.7744 -10.2255
rfingers 7.12502
rthumb -10.8216 -39.9267
lclavicle 1.59028e-014 -9.54166e-015
lhumerus -10.6297 -27.8644 82.206
lradius 49.7308
lwrist 32.8196
lhand -12.8608 -15.8718
lfingers 7.12502
lthumb 13.2274 13.6885
rfemur -70.0127 -15.8877 9.36833
rtibia 69.2488
rfoot -20.0662 -8.29693
rtoes -0.753878
lfemur -62.0222 -9.69987 -39.3131
ltibia 44.6651
lfoot -1.6526 -13.2759
ltoes -11.0964
283
root 22.5673 16.1913 -1.96075 353.791 -62.7152 39.9392
lowerback 73.5135 -8.5369 14.3961
upperback 14.2669 -1.57142 -3.89717
thorax -4.29151 -0.0306019 -9.43119
lowerneck -2.39903 -9.59592 3.84049
upperneck -29.578 -10.076 16.0478
head -8.15009 -7.50046 5.50181
rclavicle -1.27222e-014 -4.77083e-015
rhumerus 77.7891 -13.6568 -81.8743
rradius 12.5732
rwrist 32.3132
rhand -37.7532 -10.2445
rfingers 7.12502
rthumb -10.8013 -39.9467
lclavicle -1.27222e-014 -4.77083e-015
lhumerus -10.5965 -27.925 82.2947
lradius 49.7414
lwrist 32.8512
lhand -12.7629 -15.8336
lfingers 7.12502
lthumb 13.3217 13.7206
rfemur -70.1663 -16.0321 9.43379
rtibia 69.3786
rfoot -20.1064 -8.31705
rtoes -0.843207
lfemur -62.1624 -9.7688 -39.3407
ltibia 44.7907
lfoot -1.65822 -13.3763
ltoes -10.9917
284
root 22.5683 16.1807 -1.96137 353.976 -62.5939 39.8708
lowerback 73.4918 -8.44615 14.4359
upperback 14.2819 -1.43483 -3.807
thorax -4.24567 0.0268799 -9.39751
lowerneck -2.35553 -9.63354 4.08501
upperneck -29.7403 -10.1005 16.0083
head -8.23763 -7.54784 5.47252
rclavicle 2.54444e-014 -2.06736e-014
rhumerus 78.0367 -13.9303 -81.9568
rradius 12.5043
rwrist 32.7058
rhand -37.811 -10.3646
rfingers 7.12502
rthumb -10.857 -40.0639
lclavicle 2.54444e-014 -2.06736e-014
lhumerus -10.5755 -28.0067 82.4223
lradius 49.7271
lwrist 32.8724
lhand -12.7172 -15.793
lfingers 7.12502
lthumb 13.3658 13.7583
rfemur -70.3469 -16.1565 9.46252
rtibia 69.5121
rfoot -20.1585 -8.33671
rtoes -0.830733
lfemur -62.337 -9.80815 -39.4197
ltibia 44.9116
lfoot -1.63946 -13.5026
ltoes -11.0008
285
root 22.5693 16.1713 -1.9611 354.161 -62.479 39.7847
lowerback 73.4828 -8.36745 14.4591
upperback 14.2994 -1.32159 -3.71749
thorax -4.20094 0.0731536 -9.34805
lowerneck -2.38583 -9.64013 4.25869
upperneck -29.8534 -10.0893 16.0013
head -8.28888 -7.56952 5.45362
rclavicle -3.18055e-014 -1.03368e-013
rhumerus 78.3104 -14.1217 -81.995
rradius 12.4194
rwrist 32.979
rhand -37.8219 -10.6421
rfingers 7.12502
rthumb -10.8675 -40.3409
lclavicle -3.18055e-014 -1.03368e-013
lhumerus -10.526 -28.0278 82.5385
lradius 49.6623
lwrist 32.9071
lhand -12.6339 -15.7833
lfingers 7.12502
lthumb 13.4461 13.7627
rfemur -70.5133 -16.2896 9.50563
rtibia 69.6381
rfoot -20.2067 -8.3366
rtoes -0.806359
lfemur -62.4904 -9.86574 -39.466
ltibia 45.0328
lfoot -1.6434 -13.6122
ltoes -10.9331
286
root 22.5705 16.1628 -1.96095 354.324 -62.3701 39.716
lowerback 73.5032 -8.27897 14.4679
upperback 14.2891 -1.19903 -3.62546
thorax -4.1861 0.119395 -9.29322
lowerneck -2.38572 -9.65443 4.41743
upperneck -29.9386 -10.0896 15.9895
head -8.33401 -7.59227 5.43507
rclavicle 8.5875e-014 -5.08889e-014
rhumerus 78.521 -14.3357 -82.1064
rradius 12.3958
rwrist 33.2963
rhand -37.8874 -10.9372
rfingers 7.12502
rthumb -10.9306 -40.6326
lclavicle 8.5875e-014 -5.08889e-014
lhumerus -10.5161 -28.0333 82.6982
lradius 49.591
lwrist 32.9058
lhand -12.5612 -15.7486
lfingers 7.12502
lthumb 13.5161 13.7928
rfemur -70.6708 -16.4228 9.5438
rtibia 69.7607
rfoot -20.26 -8.30522
rtoes -0.767975
lfemur -62.6371 -9.90908 -39.53
ltibia 45.1513
lfoot -1.649 -13.7329
ltoes -10.8944
287
root 22.5715 16.154 -1.96054 354.574 -62.2382 39.5616
lowerback 73.4979 -8.19415 14.4882
upperback 14.2821 -1.07129 -3.49935
thorax -4.16593 0.16353 -9.20462
lowerneck -2.38192 -9.66927 4.54714
upperneck -30.0465 -10.0953 15.967
head -8.38583 -7.61597 5.41987
rclavicle -7.63333e-014 5.56597e-014
rhumerus 78.7699 -14.5222 -82.1119
rradius 12.287
rwrist 33.5726
rhand -37.9883 -11.2647
rfingers 7.12502
rthumb -11.028 -40.955
lclavicle -7.63333e-014 5.56597e-014
lhumerus -10.5018 -28.078 82.8739
lradius 49.5059
lwrist 32.8984
lhand -12.5428 -15.7289
lfingers 7.12502
lthumb 13.5339 13.8113
rfemur -70.8178 -16.5717 9.61117
rtibia 69.8776
rfoot -20.3272 -8.28476
rtoes -0.620351
lfemur -62.7831 -9.95884 -39.5763
ltibia 45.2686
lfoot -1.66426 -13.876
ltoes -10.9883
288
root 22.573 16.1443 -1.96121 354.796 -62.1137 39.4448
lowerback 73.5039 -8.10101 14.4972
upperback 14.2642 -0.940471 -3.3812
thorax -4.15947 0.208455 -9.1223
lowerneck -2.36387 -9.69534 4.69386
upperneck -30.1644 -10.1101 15.957
head -8.44406 -7.6483 5.40883
rclavicle -2.8625e-014 2.8625e-014
rhumerus 79.004 -14.7315 -82.2211
rradius 12.2313
rwrist 33.9097
rhand -38.0399 -11.5379
rfingers 7.12502
rthumb -11.0778 -41.2255
lclavicle -2.8625e-014 2.8625e-014
lhumerus -10.5348 -28.0985 83.0725
lradius 49.4713
lwrist 32.8841
lhand -12.4993 -15.6912
lfingers 7.12502
lthumb 13.5758 13.8462
rfemur -70.9872 -16.7053 9.6713
rtibia 69.9915
rfoot -20.368 -8.29841
rtoes -0.596013
lfemur -62.9527 -10.0418 -39.5947
ltibia 45.3815
lfoot -1.66781 -13.9553
ltoes -11.0164
289
root 22.5748 16.1357 -1.96142 355.03 -62.0107 39.3308
lowerback 73.456 -7.99136 14.5122
upperback 14.285 -0.806109 -3.27422
thorax -4.11373 0.26039 -9.05884
lowerneck -2.37469 -9.72227 4.8684
upperneck -30.2902 -10.1315 15.9291
head -8.50336 -7.68562 5.38698
rclavicle -5.725e-014 1.90833e-014
rhumerus 79.2924 -14.968 -82.3265
rradius 12.1234
rwrist 34.225
rhand -38.1612 -11.8238
rfingers 7.12502
rthumb -11.1947 -41.5051
lclavicle -5.725e-014 1.90833e-014
lhumerus -10.511 -28.2074 83.2113
lradius 49.4244
lwrist 32.9032
lhand -12.4998 -15.683
lfingers 7.12502
lthumb 13.5753 13.8545
rfemur -71.1788 -16.8222 9.73921
rtibia 70.1041
rfoot -20.3976 -8.31185
rtoes -0.669117
lfemur -63.1311 -10.084 -39.629
ltibia 45.4901
lfoot -1.65718 -14.083
ltoes -10.9375
